<?xml version="1.0" standalone="no"?>
<!DOCTYPE svg PUBLIC "-//W3C//DTD SVG 20010904//EN"
 "http://www.w3.org/TR/2001/REC-SVG-20010904/DTD/svg10.dtd">
<svg version="1.0" xmlns="http://www.w3.org/2000/svg"
 width="184.000000pt" height="274.000000pt" viewBox="0 0 184.000000 274.000000"
 preserveAspectRatio="xMidYMid meet">

<g transform="translate(0.000000,274.000000) scale(0.100000,-0.100000)"
fill="#000000" stroke="none">
<path d="M668 2433 c-15 -40 -19 -40 -40 -6 l-16 26 -17 -32 -17 -33 -22 21
c-12 12 -24 21 -27 21 -2 0 -5 -53 -6 -118 -4 -168 -13 -249 -29 -263 -8 -6
-14 -21 -14 -33 0 -11 -9 -34 -20 -51 -12 -19 -19 -45 -19 -70 l2 -40 6 47
c14 100 114 148 189 90 22 -17 22 -19 7 -55 -8 -20 -15 -47 -14 -59 0 -13 6
-1 14 27 21 80 69 112 154 105 84 -7 129 -118 81 -198 -20 -32 -71 -62 -107
-62 -35 0 -99 40 -116 73 -11 23 -16 27 -16 13 -1 -17 -7 -18 -62 -12 -34 3
-69 2 -79 -4 -15 -8 -22 -5 -34 12 -19 27 -22 11 -3 -17 18 -28 20 -79 6 -152
-11 -56 -11 -64 5 -82 21 -23 95 -41 170 -41 38 0 56 -4 59 -15 4 -8 22 -21
42 -29 24 -10 35 -21 35 -36 0 -29 -24 -82 -43 -99 -20 -16 -23 -36 -4 -25 7
4 9 3 4 -2 -5 -5 -14 -9 -20 -9 -6 0 -18 -17 -25 -38 -13 -33 -13 -39 2 -55 9
-10 16 -29 15 -43 l-1 -24 -7 25 c-6 21 -9 16 -16 -30 -4 -30 -15 -71 -25 -91
-28 -54 -54 -163 -41 -167 24 -8 42 -76 39 -146 l-3 -69 43 -14 42 -15 0 -91
c0 -81 -2 -94 -20 -105 -11 -7 -20 -20 -20 -30 0 -10 -16 -26 -36 -37 -45 -24
-94 -82 -94 -112 0 -25 27 -44 62 -42 16 1 12 4 -14 11 -23 6 -38 16 -38 25 0
11 6 14 22 9 13 -4 63 -10 111 -13 106 -7 112 -25 11 -34 l-69 -5 60 -2 c52
-2 62 -6 81 -30 22 -27 23 -27 141 -26 145 2 207 18 211 56 2 14 -6 52 -16 84
-11 33 -22 71 -26 87 -3 15 -11 27 -16 27 -6 0 -10 41 -10 99 l0 99 37 7 c64
12 73 21 73 73 0 47 37 138 62 153 20 13 -8 127 -53 218 -36 69 -41 86 -31
102 27 43 0 159 -51 217 -65 74 -84 114 -90 181 -5 62 -4 66 25 93 25 23 29
33 23 56 -3 15 -14 35 -22 44 -14 16 -15 30 -4 120 7 57 28 183 47 282 19 98
33 181 30 184 -3 3 -6 3 -7 1 0 -2 -2 -15 -5 -29 -2 -14 -17 -95 -34 -180 -35
-184 -50 -286 -50 -333 0 -25 -6 -37 -22 -46 l-23 -11 23 6 c32 8 52 -12 52
-52 0 -37 -20 -54 -54 -47 -13 3 -17 1 -10 -4 7 -4 17 -46 23 -93 10 -84 10
-85 -14 -107 -32 -28 -85 -43 -157 -43 l-58 0 0 36 c0 31 -4 37 -34 49 -55 23
-50 32 20 40 75 8 143 28 127 38 -6 4 -26 -1 -44 -11 -50 -25 -310 -25 -356 1
-37 20 -37 20 -21 99 10 46 15 57 28 52 8 -3 33 -8 55 -10 l40 -4 -38 10 c-59
15 -77 28 -77 55 0 34 24 43 99 37 50 -4 69 -10 80 -25 16 -22 70 -47 103 -47
39 0 108 40 125 74 18 35 20 104 4 135 -36 67 -137 94 -201 54 l-33 -21 -35
24 c-40 28 -71 30 -112 9 -26 -13 -30 -14 -30 -1 0 8 7 22 16 31 13 12 18 48
25 158 4 78 8 158 9 177 l0 35 20 -25 c17 -21 21 -23 30 -10 5 8 10 20 10 27
0 26 20 22 36 -8 l16 -32 17 39 17 39 15 -33 c7 -17 16 -32 19 -32 3 0 13 15
23 33 l19 32 18 -34 17 -34 18 27 c18 26 20 27 32 10 7 -10 13 -27 13 -38 1
-19 3 -18 25 9 27 32 26 32 47 -9 l15 -29 18 27 c20 30 35 21 35 -23 l0 -24
23 21 c30 28 37 28 37 -2 0 -32 12 -39 36 -20 18 14 18 15 -3 9 -20 -6 -23 -3
-23 24 0 36 -6 38 -36 10 l-22 -20 -6 37 -7 36 -28 -26 -27 -26 -12 32 -12 32
-25 -24 -25 -24 -12 32 -12 32 -24 -23 -23 -22 -19 25 -18 24 -22 -24 c-12
-15 -23 -20 -26 -14 -3 6 -11 20 -19 30 -14 18 -15 17 -27 -13z m352 -987 c0
-2 -8 -10 -17 -17 -16 -13 -17 -12 -4 4 13 16 21 21 21 13z m-246 -112 c3 -8
2 -12 -4 -9 -6 3 -10 10 -10 16 0 14 7 11 14 -7z m348 -184 c-3 -92 -33 -333
-42 -343 -6 -7 -98 22 -128 41 -11 7 -10 38 3 168 22 212 18 206 102 202 l68
-3 -3 -65z m-395 18 c-3 -8 -6 -5 -6 6 -1 11 2 17 5 13 3 -3 4 -12 1 -19z
m-30 -30 c-3 -8 -6 -5 -6 6 -1 11 2 17 5 13 3 -3 4 -12 1 -19z m457 -14 c3 -8
2 -12 -4 -9 -6 3 -10 10 -10 16 0 14 7 11 14 -7z m-227 -216 c-3 -8 -6 -5 -6
6 -1 11 2 17 5 13 3 -3 4 -12 1 -19z m-257 -36 c0 -4 12 -7 28 -7 59 -1 162
-17 168 -27 4 -7 9 -6 14 1 4 7 7 -8 8 -33 3 -58 20 -106 32 -86 4 7 4 24 -1
37 -13 35 -11 83 4 83 6 0 35 -11 62 -23 28 -13 63 -27 80 -31 16 -4 33 -13
37 -19 5 -8 8 -6 8 6 0 9 5 16 11 15 6 -2 14 3 16 11 4 10 -1 11 -18 6 -20 -7
-22 -6 -12 7 7 8 10 18 6 22 -4 4 18 6 49 5 52 -2 56 -4 47 -21 -12 -23 -20
-23 -13 0 5 13 4 14 -4 3 -6 -8 -8 -21 -4 -29 4 -11 1 -14 -10 -9 -13 5 -15
-1 -12 -36 3 -30 2 -36 -5 -22 -4 11 -7 23 -5 27 3 4 -10 5 -28 3 -19 -3 -35
1 -40 8 -5 8 -8 7 -8 -5 0 -16 11 -23 33 -19 4 0 7 -3 7 -9 0 -5 5 -10 11 -10
6 0 8 7 5 16 -3 8 -2 12 4 9 21 -13 -2 -100 -24 -92 -6 3 -19 0 -30 -5 -14 -7
-16 -7 -11 2 6 9 2 9 -15 0 -13 -7 -52 -10 -98 -8 l-77 3 -3 35 c-2 26 0 31 8
20 8 -13 10 -13 10 1 0 24 -25 54 -34 41 -4 -7 -2 -12 5 -12 9 0 10 -3 3 -10
-7 -7 -21 -7 -43 1 -17 6 -30 14 -27 17 3 3 1 11 -6 19 -8 11 -7 12 6 7 9 -4
16 -1 16 6 0 8 -9 10 -26 6 -16 -4 -23 -3 -19 3 4 7 -1 8 -11 4 -11 -4 -15 -3
-10 5 3 6 2 13 -4 17 -5 3 -10 -1 -10 -9 0 -23 -13 -20 -39 8 -14 15 -20 30
-16 37 5 7 4 10 -1 6 -6 -3 -15 3 -22 14 -7 11 -8 19 -2 19 5 0 10 -3 10 -8z
m523 -9 c-7 -2 -21 -2 -30 0 -10 3 -4 5 12 5 17 0 24 -2 18 -5z m-468 -113
c11 -17 -5 -11 -28 11 l-22 21 22 -11 c12 -6 25 -16 28 -21z m51 5 c10 -8 15
-14 9 -14 -5 0 -19 6 -29 14 -11 8 -15 15 -10 15 6 0 19 -7 30 -15z m-46 -20
c5 3 15 3 22 -1 8 -5 6 -10 -8 -16 -17 -7 -16 -8 4 -4 37 7 92 -15 92 -36 0
-11 -5 -16 -10 -13 -6 4 -7 12 -3 18 4 7 -1 6 -10 -2 -12 -9 -31 -12 -63 -7
-58 7 -84 22 -84 46 0 22 20 31 37 18 7 -5 17 -7 23 -3z m127 -67 c-3 -8 -6
-5 -6 6 -1 11 2 17 5 13 3 -3 4 -12 1 -19z m313 1 c0 -5 -4 -9 -10 -9 -5 0
-10 7 -10 16 0 8 5 12 10 9 6 -3 10 -10 10 -16z m-302 -31 c8 -7 12 -40 12
-99 l0 -88 -34 -7 c-19 -3 -48 -3 -65 1 l-31 7 0 102 0 103 53 -5 c28 -2 58
-9 65 -14z m58 -118 c2 -99 3 -104 25 -113 21 -7 64 -6 124 5 12 2 21 -3 23
-14 4 -23 -34 -38 -93 -38 -62 0 -99 16 -92 40 3 10 -1 27 -9 37 -9 12 -13 48
-14 106 0 79 2 88 18 85 15 -3 17 -17 18 -108z m144 0 c0 -108 -1 -110 -65
-110 -64 0 -65 2 -65 111 l0 98 58 3 c31 2 60 2 65 0 4 -2 7 -47 7 -102z
m-330 -69 c0 -16 91 -25 123 -13 23 9 29 8 34 -5 10 -25 -18 -34 -94 -31 -75
3 -100 15 -90 42 7 17 27 22 27 7z m30 -66 c30 -7 49 -14 43 -14 -7 -1 -13 -8
-13 -16 0 -9 -9 -15 -25 -15 -29 0 -75 20 -75 32 0 5 6 6 13 2 7 -4 7 -2 -2 7
-10 11 -15 11 -18 2 -3 -7 -10 -13 -18 -13 -7 0 -19 -8 -26 -17 -11 -15 -11
-16 1 -5 16 14 34 16 25 3 -3 -6 6 -8 20 -5 17 3 25 0 25 -9 0 -10 -8 -13 -27
-9 -16 2 -26 2 -23 -1 3 -3 32 -9 64 -12 61 -6 76 -11 76 -25 0 -16 -158 -3
-185 14 -30 20 -27 27 27 67 47 33 44 33 118 14z m125 -5 c8 -13 -5 -13 -25 0
-13 8 -13 10 2 10 9 0 20 -4 23 -10z m-30 -21 c7 -11 -22 -49 -37 -49 -15 0
-21 30 -8 45 15 18 36 20 45 4z m77 -11 c16 4 19 2 13 -9 -6 -10 -5 -11 4 -4
13 12 81 7 81 -6 0 -5 7 -6 15 -3 8 4 22 1 30 -6 13 -11 14 -10 9 4 -3 9 -2
16 4 16 10 0 22 -23 22 -41 0 -6 -4 -7 -10 -4 -6 3 -10 -4 -10 -17 0 -17 3
-19 9 -9 5 8 11 9 15 3 13 -21 -33 -24 -54 -4 -13 12 -30 18 -41 15 -26 -7
-24 -20 2 -19 12 1 24 -4 26 -11 5 -15 -114 -28 -165 -18 -20 4 -44 7 -53 7
-24 -1 -19 28 5 29 12 1 25 1 29 0 5 -1 6 3 3 8 -4 5 -16 8 -28 6 -21 -4 -21
-4 2 20 12 13 25 23 29 22 3 -1 7 2 8 7 2 13 28 27 31 17 2 -5 12 -6 24 -3z
m-149 -25 c-7 -2 -21 -2 -30 0 -10 3 -4 5 12 5 17 0 24 -2 18 -5z m345 -95
c-7 -20 -74 -38 -167 -44 -102 -7 -164 4 -169 30 -3 15 1 16 35 9 48 -10 199
-7 238 6 43 13 67 13 63 -1z"/>
<path d="M708 844 c-14 -14 -8 -34 10 -33 10 0 12 3 5 6 -29 11 -10 23 35 22
35 0 42 -3 27 -9 -18 -8 -18 -9 6 -9 14 -1 29 -4 33 -8 10 -11 56 -11 56 -1 0
4 -9 8 -19 8 -11 0 -21 5 -23 11 -4 12 -120 25 -130 13z"/>
<path d="M920 818 c0 -7 4 -19 9 -27 7 -10 9 -7 8 12 -2 26 -17 39 -17 15z"/>
<path d="M950 796 c0 -20 4 -24 17 -19 10 4 14 2 9 -5 -9 -15 3 -21 55 -26 24
-3 38 -2 31 1 -10 4 -10 8 -1 19 8 9 8 14 1 14 -6 0 -15 -6 -19 -14 -5 -10
-18 -12 -38 -9 -26 5 -27 7 -10 14 20 8 20 8 0 8 -17 1 -18 3 -5 12 12 8 10 9
-9 4 -15 -5 -21 -3 -17 3 3 6 2 13 -4 17 -6 4 -10 -5 -10 -19z"/>
<path d="M923 703 c-7 -3 -13 -12 -13 -21 0 -15 2 -15 17 1 18 18 16 27 -4 20z"/>
<path d="M964 693 c-6 -5 -13 -15 -16 -24 -5 -13 3 -16 45 -16 47 0 48 0 10 4
-88 9 -35 29 59 23 14 -1 28 2 31 7 6 10 -114 16 -129 6z"/>
<path d="M683 725 c-3 -9 -3 -18 -1 -21 3 -3 8 4 11 16 6 23 -1 27 -10 5z"/>
<path d="M770 696 c0 -2 9 -6 20 -9 11 -3 18 -1 14 4 -5 9 -34 13 -34 5z"/>
<path d="M755 360 c-3 -5 1 -10 9 -10 9 0 16 5 16 10 0 6 -4 10 -9 10 -6 0
-13 -4 -16 -10z"/>
<path d="M615 331 c-3 -5 -2 -12 3 -15 5 -3 9 1 9 9 0 17 -3 19 -12 6z"/>
<path d="M860 305 c-11 -13 -10 -14 4 -9 9 3 16 10 16 15 0 13 -6 11 -20 -6z"/>
<path d="M1060 301 c0 -5 5 -13 10 -16 6 -3 10 -2 10 4 0 5 -4 13 -10 16 -5 3
-10 2 -10 -4z"/>
<path d="M987 273 c-10 -9 -9 -23 1 -23 5 0 9 7 9 15 0 17 -1 18 -10 8z"/>
<path d="M923 253 c9 -2 23 -2 30 0 6 3 -1 5 -18 5 -16 0 -22 -2 -12 -5z"/>
<path d="M556 1903 c-11 -11 -6 -23 9 -23 8 0 15 4 15 9 0 13 -16 22 -24 14z"/>
<path d="M790 1886 c0 -9 7 -16 16 -16 17 0 14 22 -4 28 -7 2 -12 -3 -12 -12z"/>
<path d="M1000 1731 c0 -16 28 -20 34 -5 4 9 -1 14 -14 14 -11 0 -20 -4 -20
-9z"/>
</g>
</svg>
